<?xml version="1.0" encoding="utf-8"?>
<!-- Generator: Adobe Illustrator 19.2.1, SVG Export Plug-In . SVG Version: 6.00 Build 0)  -->
<svg version="1.1" id="图层_1" xmlns="http://www.w3.org/2000/svg" xmlns:xlink="http://www.w3.org/1999/xlink" x="0px" y="0px"
	 viewBox="0 0 389.9 132.1" style="enable-background:new 0 0 389.9 132.1;" xml:space="preserve">
<g>
	<path fill="#00A0FF" d="M105.7,13.3L105.7,13.3L105.7,13.3L105.7,13.3L105.7,13.3c-2.5-1.9-5-3.5-7.7-5c-1.9-1.1-4.3-0.6-5.6,1.2
		L75.9,31.4l-1.2,1.6c-1.8,2.4-4.6,3.7-7.6,3.5c-1.1,0-2.2,0-3.2,0C55.6,37,47.6,41,42.2,48.2c-4.3,5.8-6.2,12.6-5.9,19.2
		c0.1,1.2,0.8,2.3,1.9,2.8c2.3,1,4,3.1,4.5,5.8c0.6,3.8-1.7,7.6-5.4,8.7c-4.4,1.3-8.8-1.4-9.8-5.7c-0.5-2.4,0.1-4.7,1.5-6.5
		c0.8-1,1.2-2.2,1-3.4c-0.8-8.6,1.5-17.4,7.1-24.8c7-9.3,17.7-14.3,28.6-14.3c2.1,0,4.1-1,5.3-2.7L86.1,7.1c1.2-1.6,0.4-3.8-1.5-4.4
		c-25.4-7.5-53.9,0.9-71,23.1c-22.1,28.8-16.7,70.3,12,92.5c2.7,2.1,5.5,3.9,8.4,5.5c1.9,1.1,4.3,0.5,5.6-1.2L56,100.7l1.2-1.6
		c1.8-2.4,4.6-3.7,7.6-3.5c1.1,0,2.2,0,3.2,0C76.3,95,84.4,91,89.7,83.9c4.3-5.8,6.2-12.6,5.9-19.2c-0.1-1.2-0.8-2.3-1.9-2.8
		c-2.3-1-4-3.1-4.5-5.8c-0.6-3.8,1.7-7.6,5.4-8.7c4.4-1.3,8.8,1.4,9.8,5.7c0.5,2.4-0.1,4.7-1.5,6.5c-0.8,1-1.2,2.2-1,3.4
		c0.8,8.6-1.5,17.4-7.1,24.8c-7,9.3-17.7,14.3-28.6,14.3c-2.1,0-4.1,1-5.3,2.7L45.9,125c-1.2,1.6-0.4,3.8,1.4,4.4
		c25.6,7.5,54.4-1,71.4-23.7C140.7,76.6,134.8,35.2,105.7,13.3z"/>
	<g>
		<path fill="#00A0FF" d="M214.7,31.3l0-1.6c0-1.1-0.9-2.1-2.1-2.1h-51.4c-1.1,0-2.1,0.9-2.1,2.1v3.1c0,1.1,0.9,2.1,2.1,2.1h43.6
			c1.3,0,2.2,1.1,2,2.3c-1.2,8.1-5.1,23.3-17.1,37.9c-0.8,1-2.4,1-3.2,0c-10-12.8-13.1-26-14-30.8c-0.2-1.1-1.2-1.8-2.2-1.7
			l-1.6,0.2l-1.4,0.2c-1.2,0.1-2,1.2-1.8,2.4c1,5.6,4.8,20.8,16.5,35.4c0.7,0.8,0.6,2.1-0.2,2.8c-14.3,13.1-27.2,16-31.8,16.7
			c-1,0.1-1.8,1-1.8,2l0,3.2c0,1.2,1.1,2.2,2.3,2c5.5-0.6,20.1-3.7,36.3-18.6c0.8-0.7,2-0.7,2.8,0c7.8,7.2,17.8,14.2,31.3,18.5
			c1.1,0.3,2.3-0.3,2.6-1.4l0.9-3c0.3-1.1-0.3-2.2-1.4-2.5c-12.3-3.9-21.3-10.2-28.4-16.7c-0.8-0.7-0.9-2-0.1-2.8
			C214.4,57.5,214.7,32.4,214.7,31.3z"/>
		<path fill="#00A0FF" d="M250.3,24.4h-3.1c-1.1,0-2.1,0.9-2.1,2.1v11c0,1.1-0.9,2.1-2.1,2.1h-7.4c-1.1,0-2.1,0.9-2.1,2.1v3.1
			c0,1.1,0.9,2.1,2.1,2.1h7.4c1.1,0,2.1,0.9,2.1,2.1v15.9c0,1.1-0.9,2.1-2.1,2.1h-7.4c-1.1,0-2.1,0.9-2.1,2.1V72
			c0,1.1,0.9,2.1,2.1,2.1h7.4c1.1,0,2.1,0.9,2.1,2.1v15.1c0,3.3-1.3,8.6-9.6,9.3c-1.1,0.1-1.9,1-1.9,2v3.1c0,1.2,1,2.2,2.2,2.1
			c8.1-0.7,16.6-5.3,16.6-16.5V76.1c0-1.1,0.9-2.1,2.1-2.1h6.6c1.1,0,2.1-0.9,2.1-2.1v-3.1c0-1.1-0.9-2.1-2.1-2.1h-6.6
			c-1.1,0-2.1-0.9-2.1-2.1V48.8c0-1.1,0.9-2.1,2.1-2.1h6.6c1.1,0,2.1-0.9,2.1-2.1v-3.1c0-1.1-0.9-2.1-2.1-2.1h-6.6
			c-1.1,0-2.1-0.9-2.1-2.1v-11C252.4,25.3,251.5,24.4,250.3,24.4z"/>
		<path fill="#00A0FF" d="M266.7,105.1c0,1.1,0.9,2.1,2.1,2.1h23.1c10.2,0,18.6-7.9,18.6-17.7V40.9c0-1.1-0.9-2.1-2.1-2.1h-39.7
			c-1.1,0-2.1,0.9-2.1,2.1V105.1z M291.9,100H276c-1.1,0-2.1-0.9-2.1-2.1V76.1c0-1.1,0.9-2.1,2.1-2.1h25.2c1.1,0,2.1,0.9,2.1,2.1
			v13.4C303.2,95.3,298.1,100,291.9,100z M303.2,48.1v16.6c0,1.1-0.9,2.1-2.1,2.1H276c-1.1,0-2.1-0.9-2.1-2.1V48.1
			c0-1.1,0.9-2.1,2.1-2.1h25.2C302.3,46.1,303.2,47,303.2,48.1z"/>
		<path fill="#00A0FF" d="M298.2,24.4h-20.4c-1.1,0-2.1,0.9-2.1,2.1v3.1c0,1.1,0.9,2.1,2.1,2.1h20.4c1.1,0,2.1-0.9,2.1-2.1v-3.1
			C300.3,25.3,299.3,24.4,298.2,24.4z"/>
		<path fill="#00A0FF" d="M376.3,27.5h-42.6c-1.1,0-2.1,0.9-2.1,2.1v3.1c0,1.1,0.9,2.1,2.1,2.1h42.6c1.1,0,2.1-0.9,2.1-2.1v-3.1
			C378.4,28.5,377.5,27.5,376.3,27.5z"/>
		<path fill="#00A0FF" d="M358.1,63.8h29.7c1.1,0,2.1-0.9,2.1-2.1v-3.1c0-1.1-0.9-2.1-2.1-2.1h-65.5c-1.1,0-2.1,0.9-2.1,2.1v3.1
			c0,1.1,0.9,2.1,2.1,2.1h20.3c1.6,0,2.6,1.8,1.7,3.2l-13.5,24.3c-0.4,0.5-0.6,1.1-0.8,1.6c-1.1,3.3-0.6,6.8,1.5,9.7
			c2.1,3,5.7,4.8,9.5,4.8h37c1.7,0,3.2-0.8,4.1-2.2c0.9-1.4,1-3,0.3-4.5l-8.6-16.6c-0.5-1-1.8-1.4-2.8-0.9l-2.8,1.4
			c-1,0.5-1.4,1.8-0.9,2.8l5.1,9.8c0.7,1.4-0.3,3-1.8,3h-29.5c-1.5,0-2.8-0.6-3.6-1.8c-0.4-0.5-0.9-1.5-0.6-2.8
			c0.1-0.2,0.2-0.4,0.3-0.6l16.4-28.7C354.5,64.8,356.2,63.8,358.1,63.8z"/>
	</g>
</g>
</svg>
